<?xml version="1.0" encoding="UTF-8"?>
<svg id="Capa_2" data-name="Capa 2" xmlns="http://www.w3.org/2000/svg" viewBox="0 0 19.53 19.53">
  <defs>
    <style>
      .cls-1 {
        stroke-width: 0px;
      }
    </style>
  </defs>
  <g id="Capa_1-2" data-name="Capa 1">
    <g>
      <path class="cls-1" d="m16.6,5.77l2.72-2.72c.24-.24.24-.63,0-.87L17.33.18c-.24-.24-.63-.24-.87,0l-2.72,2.72c-.24.24-.63.24-.87,0l-.97-.97c-.39-.39-1.05-.11-1.05.43v5.72c0,.34.28.61.61.61h5.72c.55,0,.82-.66.43-1.05l-1.01-1.01c-.24-.24-.24-.63,0-.87Z"/>
      <path class="cls-1" d="m2.81,13.87L.2,16.48c-.24.24-.24.63,0,.87l2,2c.24.24.63.24.87,0l2.61-2.61c.24-.24.63-.24.87,0l.99.99c.39.39,1.05.11,1.05-.43v-5.72c0-.34-.28-.61-.61-.61H2.25c-.55,0-.82.66-.43,1.05l.99.99c.24.24.24.63,0,.87Z"/>
      <path class="cls-1" d="m19.35,16.46l-2.61-2.61c-.24-.24-.24-.63,0-.87l.97-.97c.39-.39.11-1.05-.43-1.05h-5.72c-.34,0-.61.28-.61.61v5.72c0,.55.66.82,1.05.43l1.01-1.01c.24-.24.63-.24.87,0l2.61,2.61c.24.24.63.24.87,0l2-2c.24-.24.24-.63,0-.87Z"/>
      <path class="cls-1" d="m2.18.2L.18,2.2c-.24.24-.24.63,0,.87l2.62,2.62c.24.24.24.63,0,.87l-.99.99c-.39.39-.11,1.05.43,1.05h5.72c.34,0,.61-.28.61-.61V2.26c0-.55-.66-.82-1.05-.43l-.99.99c-.24.24-.63.24-.87,0L3.05.2c-.24-.24-.63-.24-.87,0Z"/>
    </g>
  </g>
</svg>