<svg id="Capa_1" data-name="Capa 1" xmlns="http://www.w3.org/2000/svg" viewBox="0 0 401.65 133.66">
<defs>
<style>.cls-1{fill:#ffffff;}</style>
</defs>
<rect class="cls-1" y="33.63" width="15" height="100"/>
<polyline class="cls-1" points="25 33.63 75 33.63 75 91.13 40 91.13 40 115.35 75 115.35 75 133.63 25 133.63 25 76.13 60 76.13 60 48.63 25 48.63"/>
<polyline class="cls-1" points="101 133.63 86 133.63 86 33.63 101 33.63"/>
<path class="cls-1" d="M101,76.13v15h9l17.91,42.5h15L125,91.13v-15l17.91-42.5h-15L110,76.13"/>
<rect class="cls-1" x="142.65" y="70.63" width="15" height="63.03"/>
<rect class="cls-1" x="168.65" y="58.63" width="15" height="75"/>
<rect class="cls-1" x="193.65" y="58.63" width="15" height="75"/>
<rect class="cls-1" x="160.28" y="70.63" width="108.37" height="15"/>
<rect class="cls-1" x="218.65" y="118.63" width="50" height="15"/>
<rect class="cls-1" x="218.65" y="94.63" width="50" height="15"/>
<rect class="cls-1" x="218.65" y="118.63" width="50" height="15"/>
<rect class="cls-1" x="218.65" y="94.63" width="50" height="15"/>
<rect class="cls-1" x="278.65" y="70.61" width="15" height="63.03"/>
<polygon class="cls-1" points="278.65 85.63 278.65 70.63 320.68 70.63 316.68 85.63 278.65 85.63"/>
<polygon class="cls-1" points="326.68 95.63 341.68 91.63 341.68 133.64 326.68 133.64 326.68 95.63"/>
<polyline class="cls-1" points="316.68 85.63 326.68 95.63 341.68 91.63 320.68 70.63"/>
<rect class="cls-1" x="351.65" y="118.63" width="50" height="15"/>
<rect class="cls-1" x="351.65" y="94.63" width="50" height="15"/>
<rect class="cls-1" x="351.65" y="70.63" width="50" height="15"/>
<rect class="cls-1" x="351.65" y="75.87" width="15" height="31.52"/>
<rect class="cls-1" x="386.65" y="100.1" width="15" height="31.52"/>
</svg>