<?xml version="1.0" encoding="UTF-8"?>
<svg id="Capa_2" data-name="Capa 2" xmlns="http://www.w3.org/2000/svg" viewBox="0 0 20 20">
  <defs>
    <style>
      .cls-1 {
        stroke-width: 0px;
      }
    </style>
  </defs>
  <g id="Capa_1-2" data-name="Capa 1">
    <path class="cls-1" d="m17.72,0H2.28C1.03,0,0,1.03,0,2.28v15.44c0,1.25,1.03,2.28,2.28,2.28h15.44c1.25,0,2.28-1.03,2.28-2.28V2.28c0-1.25-1.03-2.28-2.28-2.28Zm-9.03,17.1h-2.45V5.91s0-1.39-1.24-1.39-1.32,1.41-1.32,1.41v11.17H1.16l.03-12.58s-.03-2.48,2.73-2.48c.81,0,1.85,0,2.4,0,2.37,0,2.37,2.28,2.37,2.28v12.78Zm8.53,0s-2.88.04-4.51.04-1.49-1.49-1.49-1.49V3.64c0-1.59,1.53-1.61,1.53-1.61h4.29c1.65,0,1.71,1.67,1.71,1.67l-.03,3.41h-2.5v-2.5h-2.5v10h2.5v-2.5h-1.2v-2.5h3.7s.05,4.38.05,5.93-1.55,1.55-1.55,1.55Z"/>
  </g>
</svg>