<?xml version="1.0" encoding="UTF-8" standalone="no"?>
<!-- Created with Inkscape (http://www.inkscape.org/) -->

<svg
   width="1920"
   height="700"
   viewBox="0 0 1920 700"
   version="1.1"
   id="svg1"
   xml:space="preserve"
   xmlns:xlink="http://www.w3.org/1999/xlink"
   xmlns="http://www.w3.org/2000/svg"
   xmlns:svg="http://www.w3.org/2000/svg"><defs
     id="defs1"><linearGradient
       id="linearGradient161"><stop
         style="stop-color:#dadaca;stop-opacity:1;"
         offset="0.22264875"
         id="stop161" /><stop
         style="stop-color:#a8a786;stop-opacity:0.40053052;"
         offset="0.23800382"
         id="stop163" /><stop
         style="stop-color:#777442;stop-opacity:0;"
         offset="1"
         id="stop162" /></linearGradient><linearGradient
       id="linearGradient159"><stop
         style="stop-color:#646c50;stop-opacity:1;"
         offset="0"
         id="stop159" /><stop
         style="stop-color:#49606d;stop-opacity:1;"
         offset="0.85412669"
         id="stop160" /></linearGradient><linearGradient
       id="linearGradient128"><stop
         style="stop-color:#76d6cd;stop-opacity:0.37400532;"
         offset="0"
         id="stop128" /><stop
         style="stop-color:#5cc3ce;stop-opacity:0;"
         offset="1"
         id="stop129" /></linearGradient><filter
       style="color-interpolation-filters:sRGB"
       id="filter115"
       x="-0.12850578"
       y="-0.13877471"
       width="1.257014"
       height="1.277549"><feGaussianBlur
         stdDeviation="3 3"
         result="blur"
         id="feGaussianBlur115" /></filter><filter
       style="color-interpolation-filters:sRGB"
       id="filter116"
       x="-0.22094404"
       y="-0.1893806"
       width="1.4418881"
       height="1.3787612"><feGaussianBlur
         stdDeviation="3 3"
         result="blur"
         id="feGaussianBlur116" /></filter><filter
       style="color-interpolation-filters:sRGB"
       id="filter117"
       x="-0.056023703"
       y="-0.045547233"
       width="1.1120478"
       height="1.0910945"><feGaussianBlur
         stdDeviation="3 3"
         result="blur"
         id="feGaussianBlur117" /></filter><filter
       style="color-interpolation-filters:sRGB"
       id="filter118"
       x="-0.42649932"
       y="-0.51460371"
       width="1.8529986"
       height="2.0292073"><feGaussianBlur
         stdDeviation="3 3"
         result="blur"
         id="feGaussianBlur118" /></filter><filter
       style="color-interpolation-filters:sRGB"
       id="filter119"
       x="-0.086861159"
       y="-0.072985645"
       width="1.1737221"
       height="1.145971"><feGaussianBlur
         stdDeviation="3 3"
         result="blur"
         id="feGaussianBlur119" /></filter><filter
       style="color-interpolation-filters:sRGB"
       id="filter120"
       x="-0.57452663"
       y="-0.53165139"
       width="2.1490536"
       height="2.0633035"><feGaussianBlur
         stdDeviation="3 3"
         result="blur"
         id="feGaussianBlur120" /></filter><filter
       style="color-interpolation-filters:sRGB"
       id="filter121"
       x="-0.038708987"
       y="-0.024641323"
       width="1.0774176"
       height="1.0492826"><feGaussianBlur
         stdDeviation="2 2"
         result="blur"
         id="feGaussianBlur121" /></filter><filter
       style="color-interpolation-filters:sRGB"
       id="filter122"
       x="-1.7021623"
       y="-0.63051"
       width="4.5806839"
       height="2.3138008"><feGaussianBlur
         stdDeviation="2 2"
         result="blur"
         id="feGaussianBlur122" /></filter><filter
       style="color-interpolation-filters:sRGB"
       id="filter123"
       x="-0.82338106"
       y="-4.4807453"
       width="2.6466759"
       height="9.9614811"><feGaussianBlur
         stdDeviation="2 2"
         result="blur"
         id="feGaussianBlur123" /></filter><filter
       style="color-interpolation-filters:sRGB"
       id="filter124"
       x="-1.0811784"
       y="-5.1987912"
       width="3.1624559"
       height="11.39757"><feGaussianBlur
         stdDeviation="2 2"
         result="blur"
         id="feGaussianBlur124" /></filter><filter
       style="color-interpolation-filters:sRGB"
       id="filter125"
       x="-0.4099985"
       y="-0.55387642"
       width="1.8200081"
       height="2.1077473"><feGaussianBlur
         stdDeviation="1 1"
         result="blur"
         id="feGaussianBlur125" /></filter><filter
       style="color-interpolation-filters:sRGB"
       id="filter126"
       x="-0.47508564"
       y="-0.49935654"
       width="1.9501836"
       height="1.9987092"><feGaussianBlur
         stdDeviation="1 1"
         result="blur"
         id="feGaussianBlur126" /></filter><filter
       style="color-interpolation-filters:sRGB"
       id="filter127"
       x="-0.13801339"
       y="-0.10223506"
       width="1.2760268"
       height="1.2044701"><feGaussianBlur
         stdDeviation="1 1"
         result="blur"
         id="feGaussianBlur127" /></filter><filter
       style="color-interpolation-filters:sRGB"
       id="filter128"
       x="-0.49414259"
       y="-0.57617612"
       width="1.9883033"
       height="2.1523453"><feGaussianBlur
         stdDeviation="1 1"
         result="blur"
         id="feGaussianBlur128" /></filter><radialGradient
       xlink:href="#linearGradient128"
       id="radialGradient129"
       cx="324.90564"
       cy="690.1803"
       fx="324.90564"
       fy="690.1803"
       r="238.30643"
       gradientTransform="matrix(1,0,0,0.7185779,0,-103.17927)"
       gradientUnits="userSpaceOnUse" /><linearGradient
       xlink:href="#linearGradient159"
       id="linearGradient160"
       x1="1638.8225"
       y1="-138.82253"
       x2="281.17767"
       y2="1218.8224"
       gradientUnits="userSpaceOnUse"
       gradientTransform="scale(1,0.64487284)" /><radialGradient
       xlink:href="#linearGradient161"
       id="radialGradient162"
       cx="1641.0062"
       cy="229.40282"
       fx="1641.0062"
       fy="229.40282"
       r="373.96683"
       gradientTransform="matrix(0.62080785,0,0,0.61343092,670.68205,44.635285)"
       gradientUnits="userSpaceOnUse" /></defs><g
     id="layer1"
     style="display:inline"><rect
       style="display:inline;fill:url(#linearGradient160);fill-opacity:1;stroke:none;stroke-width:1.04395;stroke-linecap:round;stroke-linejoin:round;stroke-dasharray:none;stroke-opacity:1"
       id="rect159"
       width="1920"
       height="696.46265"
       x="0"
       y="2.3092639e-14"
       ry="2.49912" /><path
       style="fill:#4e3d3f;fill-opacity:1;stroke-width:3.86276;stroke-linecap:round;stroke-linejoin:round;stroke-opacity:0.445415"
       d="m 129.52364,240.75659 2.83689,-22.47491 2.05641,-41.73197 H 92.322378 L 112.66566,160.53262 125.10664,144.925 H 98.430729 l 22.065941,-17.23357 9.02697,-12.26125 h -19.69488 l 22.53177,-22.69778 12.56268,-29.271965 10.37414,27.224415 22.49183,24.74533 h -20.58663 l 5.89628,12.26125 22.59264,17.23357 h -31.09291 l 14.04196,15.60762 24.01109,16.01709 h -38.05305 l 2.60399,41.73197 3.05937,22.47491 z"
       id="path3" /><path
       style="fill:#4e3d3f;fill-opacity:1;stroke-width:4.94803;stroke-linecap:round;stroke-linejoin:round;stroke-opacity:0.445415"
       d="M 53.978489,235.94207 57.667572,207.58294 60.341728,154.925 H 5.602074 L 32.056421,134.71444 48.234636,115.02055 H 13.545355 L 42.239843,93.275 53.978489,77.803605 H 28.367321 l 29.300253,-28.64033 16.336469,-36.93577 13.490502,34.35212 29.248325,31.22398 H 89.972064 L 97.639571,93.275 127.01897,115.02056 H 86.58584 l 18.26012,19.69388 31.22396,20.21056 H 86.58584 l 3.386224,52.65794 3.978403,28.35913 z"
       id="path3-85" /><path
       style="fill:#4e3d3f;fill-opacity:1;stroke-width:5.41001;stroke-linecap:round;stroke-linejoin:round;stroke-opacity:0.445415"
       d="m 204.73394,249.87565 4.30524,-29.04984 3.1208,-53.94046 h -63.88235 l 30.87281,-20.70284 18.88031,-20.17352 h -40.48314 l 33.4871,-22.27519 13.69923,-15.84821 h -29.88877 l 34.19401,-29.337885 19.06502,-37.83535 15.7437,35.1888 34.13342,31.984435 h -31.24209 l 8.94813,15.84821 34.28639,22.27519 h -47.18631 l 21.30994,20.17352 36.43903,20.70284 h -57.74897 l 3.95179,53.94046 4.64287,29.04985 z"
       id="path3-8" /><path
       style="fill:#4e3d3f;fill-opacity:1;stroke-width:3.86276;stroke-linecap:round;stroke-linejoin:round;stroke-opacity:0.445415"
       d="m 304.95341,256.71694 2.83689,-22.47492 2.05641,-41.73196 h -42.09457 l 20.34329,-16.0171 12.44098,-15.60761 h -26.67592 l 22.06595,-17.23358 9.02697,-12.26124 h -19.69489 l 22.53178,-22.69778 12.56267,-29.27198 10.37414,27.22443 22.49184,24.74533 h -20.58663 l 5.89628,12.26124 22.59263,17.23358 h -31.09291 l 14.04196,15.60761 24.01109,16.01711 h -38.05305 l 2.604,41.73196 3.05937,22.47492 z"
       id="path3-1" /><path
       style="fill:#4e3d3f;fill-opacity:1;stroke-width:3.86276;stroke-linecap:round;stroke-linejoin:round;stroke-opacity:0.445415"
       d="m 466.21223,286.77143 2.83689,-22.47491 2.05641,-41.73197 h -42.09457 l 20.34329,-16.01709 12.44098,-15.60762 h -26.67592 l 22.06595,-17.23357 9.02697,-12.26125 h -19.69488 l 22.53177,-22.69778 12.56267,-29.27197 10.37414,27.22442 22.49184,24.74533 h -20.58663 l 5.89628,12.26125 22.59263,17.23357 h -31.09291 l 14.04196,15.60762 24.01109,16.01709 h -38.05305 l 2.604,41.73197 3.05937,22.47491 z"
       id="path3-1-7" /><path
       style="fill:#4e3d3f;fill-opacity:1;stroke-width:3.86276;stroke-linecap:round;stroke-linejoin:round;stroke-opacity:0.445415"
       d="m 564.29496,296.83448 2.83689,-22.47491 2.05641,-41.73197 h -42.09457 l 20.34329,-16.01709 12.44098,-15.60762 h -26.67592 l 22.06595,-17.23357 9.02697,-12.26125 h -19.69488 l 22.53177,-22.69778 12.56268,-29.27197 10.37414,27.22442 22.49183,24.74533 h -20.58663 l 5.89628,12.26125 22.59263,17.23357 h -31.0929 l 14.04195,15.60762 24.0111,16.01709 h -38.05305 l 2.60399,41.73197 3.05937,22.47491 z"
       id="path3-1-3" /><path
       style="fill:#4e3d3f;fill-opacity:1;stroke-width:3.23192;stroke-linecap:round;stroke-linejoin:round;stroke-opacity:0.445415"
       d="m 383.98738,267.39435 2.54147,-17.56225 1.84227,-32.61001 h -37.71098 l 18.22482,-12.51602 11.1454,-12.19601 h -23.89798 l 19.76809,-13.46662 8.08691,-9.58111 h -17.64391 l 20.18538,-17.73639 11.25445,-22.87358 9.29381,21.27359 20.14961,19.33639 h -18.4428 l 5.28225,9.58111 20.23991,13.46662 h -27.85499 l 12.57968,12.19601 21.51065,12.51602 h -34.09033 l 2.33283,32.61001 2.74078,17.56225 z"
       id="path3-8-7" /><path
       style="fill:#4e3d3f;fill-opacity:1;stroke-width:3.86276;stroke-linecap:round;stroke-linejoin:round;stroke-opacity:0.445415"
       d="m 811.99749,332.52374 2.83689,-22.47491 2.05641,-41.73197 h -42.09457 l 20.34329,-16.01709 12.44098,-15.60762 h -26.67592 l 22.06595,-17.23357 9.02697,-12.26125 h -19.69488 l 22.53177,-22.69778 12.56267,-29.27197 10.37414,27.22442 22.49184,24.74533 H 839.6764 l 5.89628,12.26125 22.59263,17.23357 H 837.0724 l 14.04196,15.60762 24.01109,16.01709 H 837.0724 l 2.604,41.73197 3.05937,22.47491 z"
       id="path3-1-7-9" /><path
       style="fill:#4e3d3f;fill-opacity:1;stroke-width:3.86276;stroke-linecap:round;stroke-linejoin:round;stroke-opacity:0.445415"
       d="m 910.08022,342.58679 2.83689,-22.47491 2.05641,-41.73197 h -42.09457 l 20.34329,-16.01709 12.44098,-15.60762 H 878.9873 l 22.06595,-17.23357 9.02697,-12.26125 h -19.69488 l 22.53177,-22.69778 12.56268,-29.27197 10.37414,27.22442 22.49183,24.74533 h -20.58663 l 5.89628,12.26125 22.59263,17.23357 h -31.0929 l 14.04195,15.60762 24.0111,16.01709 h -38.05305 l 2.60399,41.73197 3.05937,22.47491 z"
       id="path3-1-3-2" /><path
       style="fill:#4e3d3f;fill-opacity:1;stroke-width:3.23192;stroke-linecap:round;stroke-linejoin:round;stroke-opacity:0.445415"
       d="m 729.77264,313.14666 2.54147,-17.56225 1.84227,-32.61001 H 696.4454 l 18.22482,-12.51602 11.1454,-12.19601 h -23.89798 l 19.76809,-13.46662 8.08691,-9.58111 h -17.64391 l 20.18538,-17.73639 11.25445,-22.87358 9.29381,21.27359 20.14961,19.33639 h -18.4428 l 5.28225,9.58111 20.23991,13.46662 h -27.85499 l 12.57968,12.19601 21.51065,12.51602 h -34.09033 l 2.33283,32.61001 2.74078,17.56225 z"
       id="path3-8-7-7" /><path
       style="fill:#4e3d3f;fill-opacity:1;stroke-width:3.29953;stroke-linecap:round;stroke-linejoin:round;stroke-dasharray:none;stroke-opacity:0.445415"
       d="m 1920,458.68311 -111.5222,-29.46604 -71.8234,-44.19905 -228.3618,-12.89139 -108.656,-42.35742 -294.6603,18.81953 -127.48084,-13.8122 -156.12977,-38.15662 H 736.65084 L 613.26183,281.88691 405.15796,235.84623 H 313.07661 L 189.68759,211.90508 79.189965,195.33043 0,191.64718 V 700 h 1920 z"
       id="path2" /><path
       style="fill:#714e56;fill-opacity:1;stroke-width:5.24184;stroke-linecap:round;stroke-linejoin:round;stroke-opacity:0.445415"
       d="m 1734.0165,514.52279 -3.8496,-30.49888 -2.7907,-56.63103 h 57.1232 l -27.6063,-21.73549 -16.8826,-21.17981 h 36.1998 l -29.944,-23.38627 -12.2498,-16.63875 h 26.7263 l -30.5759,-30.8013 -17.0478,-39.7226 -14.078,36.94404 -30.5217,33.57986 h 27.9363 l -8.0012,16.63875 -30.6587,23.38627 h 42.1936 l -19.0551,21.17981 -32.5835,21.73549 h 51.6386 l -3.5337,56.63103 -4.1515,30.49888 z"
       id="path3-12" /><path
       style="fill:#714e56;fill-opacity:1;stroke-width:6.71457;stroke-linecap:round;stroke-linejoin:round;stroke-opacity:0.445415"
       d="m 1860.959,494.4192 -5.0061,-38.48384 -3.6288,-71.45778 h 74.2826 l -35.899,-27.4261 -21.9541,-26.72496 h 47.0739 l -38.939,-29.50911 -15.9295,-20.99497 h 34.7549 l -39.761,-38.86545 -22.169,-50.12251 -18.3068,46.61645 -39.6905,42.37151 h 36.3285 l -10.405,20.99497 -39.8683,29.50912 h 54.8684 l -24.7793,26.72495 -42.3714,27.4261 h 67.1507 l -4.5951,71.45778 -5.3988,38.48384 z"
       id="path3-85-3" /><path
       style="fill:#714e56;fill-opacity:1;stroke-width:7.34148;stroke-linecap:round;stroke-linejoin:round;stroke-opacity:0.445415"
       d="m 1631.9548,529.61154 -5.8423,-39.42116 -4.2349,-73.19817 h 86.6895 l -41.8951,-28.09413 -25.6209,-27.37583 h 54.9365 l -45.4426,-30.22784 -18.5902,-21.50631 h 40.5596 l -46.4019,-39.81205 -25.8715,-51.34326 -21.3645,47.75184 -46.3196,43.40347 h 42.396 l -12.1428,21.50631 -46.5273,30.22784 h 64.0327 l -28.9179,27.37583 -49.4484,28.09413 h 78.3663 l -5.3626,73.19818 -6.3004,39.42116 z"
       id="path3-8-3" /><path
       style="fill:#714e56;fill-opacity:1;stroke-width:5.24184;stroke-linecap:round;stroke-linejoin:round;stroke-opacity:0.445415"
       d="m 1495.9552,547.03742 -3.8497,-30.49889 -2.7906,-56.63103 h 57.123 l -27.6061,-21.73548 -16.8826,-21.17981 h 36.1997 l -29.944,-23.3863 -12.2497,-16.63872 h 26.7264 l -30.5761,-30.8013 -17.0478,-39.72261 -14.0779,36.94405 -30.5219,33.57986 h 27.9366 l -8.0014,16.63872 -30.6586,23.3863 h 42.1936 l -19.0552,21.17981 -32.5835,21.73551 h 51.6387 l -3.5336,56.63103 -4.1517,30.49887 z"
       id="path3-1-4" /></g><g
     id="layer4"
     style="display:inline"><path
       style="display:inline;fill:#5b4755;fill-opacity:1;stroke:#000000;stroke-width:2;stroke-linecap:round;stroke-linejoin:round;stroke-dasharray:none;stroke-opacity:1;filter:url(#filter119)"
       d="m 200.13541,429.33583 87.96711,102.7547 1.22815,9.59616 -8.27411,-1.86155 -86.12942,-106.33548"
       id="path26" /><path
       style="display:inline;fill:#30282e;fill-opacity:1;stroke:#000000;stroke-width:2;stroke-linecap:round;stroke-linejoin:round;stroke-dasharray:none;stroke-opacity:1;filter:url(#filter118)"
       d="m 202.98627,427.8553 -12.31711,9.29471 -3.59108,-0.30868 -1.42786,-4.14906 14.32273,-11.42305 2.71955,-0.0538 2.18397,2.48845 z"
       id="path24" /><path
       style="fill:#ab7484;fill-opacity:1;stroke:#000000;stroke-width:2;stroke-linecap:round;stroke-linejoin:round;stroke-dasharray:none;stroke-opacity:1;filter:url(#filter116)"
       d="m 228.86641,423.37139 h 13.67338 l 6.18558,-4.5578 3.25556,-5.86002 3.25557,-10.41782 v -12.0456 -7.16224 l -3.25557,-2.93002 -13.34782,-0.32555 -11.39449,0.97667 -6.18558,2.2789 -1.62778,2.60445 -1.30223,12.0456 0.32556,13.99894 1.95334,7.81336 z"
       id="path27" /><path
       id="path28"
       style="fill:#5b4755;fill-opacity:1;stroke:#000000;stroke-width:2;stroke-linecap:round;stroke-linejoin:round;stroke-dasharray:none;stroke-opacity:1;filter:url(#filter121)"
       d="m 227.24023,422.72155 v 6.83594 l -24.41796,16.92969 -0.0215,0.70117 -10.07031,15.41211 -6.51172,28.65039 -4.80203,39.79798 c 0.0851,1.97943 -0.4177,3.76193 -0.94915,5.63575 l -2.05937,4.99596 -3.33789,5.63867 0.23047,6.5625 1.61133,0.91992 1.38086,-0.23047 -0.69141,-4.14258 2.64844,-6.10156 -0.92188,8.05664 0.80665,5.17969 2.18554,1.61133 -0.45898,-7.01953 1.38086,-7.82813 0.68945,8.17188 0.92188,8.40234 2.53125,0.92188 -0.91993,-10.01368 1.26563,-8.17187 0.80664,15.88281 2.76172,-0.68945 -1.04492,-10.04297 1.1875,-7.97266 2.90039,0.0547 0.0781,6.45313 -1.15039,3.875 2.13867,0.19921 1.26758,-5.08984 -0.082,-9.92187 -0.0781,-0.004 -1.75492,-4.47338 1.91551,-28.82516 4.51715,-15.74052 0.47266,-1.74219 -5.0293,170.21876 27.34766,1.3027 6.50976,-107.75974 8.46484,-0.65039 3.58204,109.38673 24.9746,-1.9531 -4.27929,-109.71293 -0.56055,-82.58984 22.83789,4.13086 15.85547,-3.34375 11.16602,-7.72461 12.37109,-29.62696 -17.25391,0.32617 -14.65039,24.41602 -24.73437,-5.94922 -0.01,-0.23633 -25.06836,-15.30078 -1.30273,-7.8125 z" /><path
       style="fill:#2b1d27;fill-opacity:1;stroke:#000000;stroke-width:2;stroke-linecap:round;stroke-linejoin:round;stroke-dasharray:none;stroke-opacity:1;filter:url(#filter115)"
       d="m 226.58751,423.04583 -20.67286,3.41835 2.93002,-8.46448 -11.23171,4.55779 3.7439,-10.25503 -8.95281,4.06946 11.23171,-18.0684 6.99947,-17.74285 6.0228,-10.25503 18.88229,-2.93002 19.37063,5.86003 1.30222,6.34835 -1.465,3.74391 -3.25557,-2.93002 -24.57953,0.32556 -6.99948,3.90668 -2.11611,13.34783 0.97667,17.41729 2.44167,5.2089 z"
       id="path30" /><path
       style="display:inline;fill:#ab7484;fill-opacity:1;stroke:#000000;stroke-width:1.3;stroke-linecap:round;stroke-linejoin:round;stroke-dasharray:none;stroke-opacity:1;filter:url(#filter127)"
       d="m 311.24424,431.63936 -1.6182,-1.17321 -2.3578,-2.84925 -2.6352,-3.18443 -1.8955,-4.97221 0.1849,-3.01684 2.3579,-1.39668 1.5256,3.91071 1.2945,4.19006 1.6181,0.50281 0.093,-19.386 1.0171,-1.50842 h 1.5718 l 1.0172,0.39107 -0.3699,15.14007 0.2311,-0.94974 1.3408,-0.11173 1.202,1.00561 1.2945,-0.33521 1.6181,0.89388 2.3116,0.39108 1.7568,1.22907 1.3869,1.11735 0.6473,4.41353 -0.3236,3.46379 -2.4503,2.01122 -8.2755,1.17322 z"
       id="path20" /><path
       style="display:inline;fill:#5e3944;fill-opacity:1;stroke:#000000;stroke-width:1.3;stroke-linecap:round;stroke-linejoin:round;stroke-dasharray:none;stroke-opacity:1;filter:url(#filter125)"
       d="m 327.54854,423.03623 -1.8607,-3.27922 -3.3635,-0.82256 -2.2146,0.54356 1.4293,0.86358 2.4356,0.83197 1.6036,3.26753 z"
       id="path22" /><path
       style="display:inline;fill:#5e3944;fill-opacity:1;stroke:#000000;stroke-width:2;stroke-linecap:round;stroke-linejoin:round;stroke-dasharray:none;stroke-opacity:1;filter:url(#filter128)"
       d="m 324.80664,422.96701 -1.3932,-3.50348 -3.2189,-1.27621 -2.2682,0.23461 1.2973,1.0515 2.2985,1.15823 1.1401,3.45663 z"
       id="path22-8" /><path
       style="display:inline;fill:#5e3944;fill-opacity:1;stroke:#000000;stroke-width:1.3;stroke-linecap:round;stroke-linejoin:round;stroke-dasharray:none;stroke-opacity:1;filter:url(#filter126)"
       d="m 321.37224,422.10349 -1.0557,-3.61952 -3.0838,-1.57483 -2.2802,0.0191 1.1921,1.16945 2.1786,1.37036 0.8082,3.54895 z"
       id="path22-5" /><path
       style="display:inline;fill:#69395b;fill-opacity:1;stroke:#000000;stroke-width:1.13488;stroke-linecap:round;stroke-linejoin:round;stroke-dasharray:none;stroke-opacity:1;filter:url(#filter123)"
       d="m 232.46106,394.46318 h 6.51878 v 0 l -6.51878,1.19789 z"
       id="path15" /><path
       style="display:inline;fill:#69395b;fill-opacity:1;stroke:#000000;stroke-width:1.13488;stroke-linecap:round;stroke-linejoin:round;stroke-dasharray:none;stroke-opacity:1;filter:url(#filter124)"
       d="m 246.81104,394.38231 h 4.96398 v 1.03244 z"
       id="path16" /><path
       style="display:inline;fill:#69395b;fill-opacity:1;stroke:#000000;stroke-width:1.13488;stroke-linecap:round;stroke-linejoin:round;stroke-dasharray:none;stroke-opacity:1;filter:url(#filter122)"
       d="m 242.48045,398.31609 2.05666,7.52819 -2.85726,0.32187 2.85726,-0.32187 z"
       id="path17" /><path
       style="fill:#160c13;fill-opacity:1;stroke:#000000;stroke-width:2;stroke-linecap:round;stroke-linejoin:round;stroke-dasharray:none;stroke-opacity:1;filter:url(#filter120)"
       d="m 196.19565,424.31585 -6.6759,-7.59671 0.4604,-2.76244 -3.45305,-2.30203 -3.91345,1.38122 -0.46041,2.30203 -0.2302,2.99264 3.68325,1.38122 5.75508,7.36651"
       id="path32" /><path
       style="display:inline;fill:#1e090d;fill-opacity:1;stroke:#000000;stroke-width:2;stroke-linecap:round;stroke-linejoin:round;stroke-dasharray:none;stroke-opacity:1;filter:url(#filter117)"
       d="m 225.61084,428.25474 -27.34677,15.30116 -6.83669,8.13892 -58.60022,140.64052 19.85896,-0.65111 18.55674,14.97561 16.92895,-0.97667 7.81336,2.60445 31.90457,-2.2789 6.05544,-177.43976 5.79907,0.0295 -2.95158,176.0343 26.90831,-4.15855 9.44114,-77.15695 6.05073,-55.46992 -6.37628,-21.03592 -27.67233,-18.23118 z"
       id="path29" /></g><g
     id="layer5"><ellipse
       style="fill:url(#radialGradient129);fill-opacity:1;stroke:none;stroke-width:1.3;stroke-linecap:round;stroke-linejoin:round;stroke-dasharray:none;stroke-opacity:1"
       id="path128"
       cx="324.90564"
       cy="392.76904"
       rx="237.65643"
       ry="170.59174" /></g><g
     id="layer3"
     style="display:none"><path
       style="display:inline;fill:#5b4755;fill-opacity:1;stroke:#000000;stroke-width:2;stroke-linecap:round;stroke-linejoin:round;stroke-dasharray:none;stroke-opacity:1"
       d="m 302.3082,635.96021 87.96711,102.7547 1.22815,9.59616 -8.27411,-1.86155 -86.12942,-106.33548"
       id="path26-6" /><path
       style="display:inline;fill:#30282e;fill-opacity:1;stroke:#000000;stroke-width:2;stroke-linecap:round;stroke-linejoin:round;stroke-dasharray:none;stroke-opacity:1"
       d="m 305.15906,634.47968 -12.31711,9.29471 -3.59108,-0.30868 -1.42786,-4.14906 14.32273,-11.42305 2.71955,-0.0538 2.18397,2.48845 z"
       id="path24-1" /><path
       style="display:inline;fill:#ab7484;fill-opacity:1;stroke:#000000;stroke-width:2;stroke-linecap:round;stroke-linejoin:round;stroke-dasharray:none;stroke-opacity:1"
       d="m 331.0392,629.99577 h 13.67338 l 6.18558,-4.5578 3.25556,-5.86002 3.25557,-10.41782 v -12.0456 -7.16224 l -3.25557,-2.93002 -13.34782,-0.32555 -11.39449,0.97667 -6.18558,2.2789 -1.62778,2.60445 -1.30223,12.0456 0.32556,13.99894 1.95334,7.81336 z"
       id="path27-5" /><path
       id="path28-4"
       style="display:inline;fill:#5b4755;fill-opacity:1;stroke:#000000;stroke-width:2;stroke-linecap:round;stroke-linejoin:round;stroke-dasharray:none;stroke-opacity:1"
       d="m 329.41302,629.34593 v 6.83594 l -24.41796,16.92969 -0.0215,0.70117 -10.07031,15.41211 -6.51172,28.65039 -4.80203,39.79798 c 0.0851,1.97943 -0.4177,3.76193 -0.94915,5.63575 l -2.05937,4.99596 -3.33789,5.63867 0.23047,6.5625 1.61133,0.91992 1.38086,-0.23047 -0.69141,-4.14258 2.64844,-6.10156 -0.92188,8.05664 0.80665,5.17969 2.18554,1.61133 -0.45898,-7.01953 1.38086,-7.82813 0.68945,8.17188 0.92188,8.40234 2.53125,0.92188 -0.91993,-10.01368 1.26563,-8.17187 0.80664,15.88281 2.76172,-0.68945 -1.04492,-10.04297 1.1875,-7.97266 2.90039,0.0547 0.0781,6.45313 -1.15039,3.875 2.13867,0.19921 1.26758,-5.08984 -0.082,-9.92187 -0.0781,-0.004 -1.75492,-4.47338 1.91551,-28.82516 4.51715,-15.74052 0.47266,-1.74219 -5.0293,170.21875 27.34766,1.30273 6.50976,-107.75976 8.46484,-0.65039 3.58204,109.38672 24.9746,-1.95313 -4.27929,-109.71289 -0.56055,-82.58984 22.83789,4.13086 15.85547,-3.34375 11.16602,-7.72461 12.37109,-29.62696 -17.25391,0.32617 -14.65039,24.41602 -24.73437,-5.94922 -0.01,-0.23633 -25.06836,-15.30078 -1.30273,-7.8125 z" /><path
       style="display:inline;fill:#2b1d27;fill-opacity:1;stroke:#000000;stroke-width:2;stroke-linecap:round;stroke-linejoin:round;stroke-dasharray:none;stroke-opacity:1"
       d="m 328.7603,629.67021 -20.67286,3.41835 2.93002,-8.46448 -11.23171,4.55779 3.7439,-10.25503 -8.95281,4.06946 11.23171,-18.0684 6.99947,-17.74285 6.0228,-10.25503 18.88229,-2.93002 19.37063,5.86003 1.30222,6.34835 -1.465,3.74391 -3.25557,-2.93002 -24.57953,0.32556 -6.99948,3.90668 -2.11611,13.34783 0.97667,17.41729 2.44167,5.2089 z"
       id="path30-2" /><path
       style="display:inline;fill:#ab7484;fill-opacity:1;stroke:#000000;stroke-width:2;stroke-linecap:round;stroke-linejoin:round;stroke-dasharray:none;stroke-opacity:1"
       d="m 413.41703,638.26374 -1.6182,-1.17321 -2.3578,-2.84925 -2.6352,-3.18443 -1.8955,-4.97221 0.1849,-3.01684 2.3579,-1.39668 1.5256,3.91071 1.2945,4.19006 1.6181,0.50281 0.093,-19.386 1.0171,-1.50842 h 1.5718 l 1.0172,0.39107 -0.3699,15.14007 0.2311,-0.94974 1.3408,-0.11173 1.202,1.00561 1.2945,-0.33521 1.6181,0.89388 2.3116,0.39108 1.7568,1.22907 1.3869,1.11735 0.6473,4.41353 -0.3236,3.46379 -2.4503,2.01122 -8.2755,1.17322 z"
       id="path20-0" /><path
       style="display:inline;fill:#5e3944;fill-opacity:1;stroke:#000000;stroke-width:2;stroke-linecap:round;stroke-linejoin:round;stroke-dasharray:none;stroke-opacity:1"
       d="m 429.72133,629.66061 -1.8607,-3.27922 -3.3635,-0.82256 -2.2146,0.54356 1.4293,0.86358 2.4356,0.83197 1.6036,3.26753 z"
       id="path22-9" /><path
       style="display:inline;fill:#5e3944;fill-opacity:1;stroke:#000000;stroke-width:2;stroke-linecap:round;stroke-linejoin:round;stroke-dasharray:none;stroke-opacity:1"
       d="m 426.97943,629.59139 -1.3932,-3.50348 -3.2189,-1.27621 -2.2682,0.23461 1.2973,1.0515 2.2985,1.15823 1.1401,3.45663 z"
       id="path22-8-7" /><path
       style="display:inline;fill:#5e3944;fill-opacity:1;stroke:#000000;stroke-width:2;stroke-linecap:round;stroke-linejoin:round;stroke-dasharray:none;stroke-opacity:1"
       d="m 423.54503,628.72787 -1.0557,-3.61952 -3.0838,-1.57483 -2.2802,0.0191 1.1921,1.16945 2.1786,1.37036 0.8082,3.54895 z"
       id="path22-5-3" /><path
       style="display:inline;fill:#69395b;fill-opacity:1;stroke:#000000;stroke-width:1.13488;stroke-linecap:round;stroke-linejoin:round;stroke-dasharray:none;stroke-opacity:1"
       d="m 334.63385,601.08756 h 6.51878 v 0 l -6.51878,1.19789 z"
       id="path15-7" /><path
       style="display:inline;fill:#69395b;fill-opacity:1;stroke:#000000;stroke-width:1.13488;stroke-linecap:round;stroke-linejoin:round;stroke-dasharray:none;stroke-opacity:1"
       d="m 348.98383,601.00669 h 4.96398 v 1.03244 z"
       id="path16-2" /><path
       style="display:inline;fill:#69395b;fill-opacity:1;stroke:#000000;stroke-width:1.13488;stroke-linecap:round;stroke-linejoin:round;stroke-dasharray:none;stroke-opacity:1"
       d="m 344.65324,604.94047 2.05666,7.52819 -2.85726,0.32187 2.85726,-0.32187 z"
       id="path17-6" /><path
       style="display:inline;fill:#160c13;fill-opacity:1;stroke:#000000;stroke-width:2;stroke-linecap:round;stroke-linejoin:round;stroke-dasharray:none;stroke-opacity:1"
       d="m 298.36844,630.94023 -6.6759,-7.59671 0.4604,-2.76244 -3.45305,-2.30203 -3.91345,1.38122 -0.46041,2.30203 -0.2302,2.99264 3.68325,1.38122 5.75508,7.36651"
       id="path32-0" /><path
       style="display:inline;fill:#1e090d;fill-opacity:1;stroke:#000000;stroke-width:2;stroke-linecap:round;stroke-linejoin:round;stroke-dasharray:none;stroke-opacity:1"
       d="m 327.78363,634.87912 -27.34677,15.30116 -6.83669,8.13892 -58.60022,140.64052 19.85896,-0.65111 18.55674,14.97561 16.92895,-0.97667 7.81336,2.60445 31.90457,-2.2789 6.05544,-177.43976 5.79907,0.0295 -2.95158,176.0343 26.90831,-4.15855 9.44114,-77.15695 6.05073,-55.46992 -6.37628,-21.03592 -27.67233,-18.23118 z"
       id="path29-1" /></g><g
     id="layer2"
     style="display:inline"><rect
       style="fill:#6fb2bf;fill-opacity:0.516556;stroke:#30d9e1;stroke-width:2.32537;stroke-linecap:round;stroke-linejoin:round;stroke-dasharray:none;stroke-opacity:1"
       id="rect4"
       width="45.962891"
       height="66.462723"
       x="349.51602"
       y="391.8125"
       ry="4.7584596" /><rect
       style="fill:#6fb2bf;fill-opacity:0.267108;stroke:#30d9e1;stroke-width:2.32537;stroke-linecap:round;stroke-linejoin:round;stroke-dasharray:none;stroke-opacity:1"
       id="rect4-0"
       width="86.832825"
       height="65.544075"
       x="251.73912"
       y="392.27185"
       ry="4.692688" /><rect
       style="fill:#6fb2bf;fill-opacity:0.238411;stroke:#30d9e1;stroke-width:2.32537;stroke-linecap:round;stroke-linejoin:round;stroke-dasharray:none;stroke-opacity:1"
       id="rect4-0-4"
       width="87.082169"
       height="54.128342"
       x="307.81476"
       y="329.27917"
       ry="3.8753684" /><rect
       style="fill:#6da0be;fill-opacity:1;stroke-width:1.21008;stroke-linecap:round;stroke-linejoin:round;stroke-dasharray:none;stroke-opacity:0.445415"
       id="rect3"
       width="10.506843"
       height="10.506843"
       x="353.88983"
       y="395.91125"
       ry="2.1950676" /><rect
       style="fill:#6dbdbe;fill-opacity:1;stroke-width:1.21008;stroke-linecap:round;stroke-linejoin:round;stroke-dasharray:none;stroke-opacity:0.445415"
       id="rect3-7"
       width="10.506843"
       height="10.506843"
       x="367.24405"
       y="395.91125"
       ry="2.1950676" /><rect
       style="fill:#6dbeb6;fill-opacity:1;stroke-width:1.21008;stroke-linecap:round;stroke-linejoin:round;stroke-dasharray:none;stroke-opacity:0.445415"
       id="rect3-9"
       width="10.506843"
       height="10.506843"
       x="380.59827"
       y="395.91125"
       ry="2.1950676" /><rect
       style="fill:#6db1be;fill-opacity:1;stroke-width:1.21008;stroke-linecap:round;stroke-linejoin:round;stroke-dasharray:none;stroke-opacity:0.445415"
       id="rect3-6"
       width="10.506843"
       height="10.506843"
       x="353.88983"
       y="409.03925"
       ry="2.1950676" /><rect
       style="fill:#6dafbe;fill-opacity:1;stroke-width:1.21008;stroke-linecap:round;stroke-linejoin:round;stroke-dasharray:none;stroke-opacity:0.445415"
       id="rect3-7-0"
       width="10.506843"
       height="10.506843"
       x="367.24405"
       y="409.03925"
       ry="2.1950676" /><rect
       style="fill:#6dbe9d;fill-opacity:1;stroke-width:1.21008;stroke-linecap:round;stroke-linejoin:round;stroke-dasharray:none;stroke-opacity:0.445415"
       id="rect3-9-2"
       width="10.506843"
       height="10.506843"
       x="380.59827"
       y="409.03925"
       ry="2.1950676" /><path
       style="fill:none;fill-opacity:1;stroke:#6dbdbe;stroke-width:2.77224;stroke-linecap:round;stroke-linejoin:round;stroke-dasharray:none;stroke-opacity:1"
       d="m 258.61187,401.16467 h 44.65408"
       id="path5" /><path
       style="fill:#6db1be;fill-opacity:1;stroke:#a4b377;stroke-width:2.77224;stroke-linecap:round;stroke-linejoin:round;stroke-dasharray:none;stroke-opacity:1"
       d="m 258.61187,415.21361 h 63.04105"
       id="path5-1" /><path
       style="fill:none;fill-opacity:1;stroke:#6dbe8e;stroke-width:2.77224;stroke-linecap:round;stroke-linejoin:round;stroke-dasharray:none;stroke-opacity:1"
       d="m 258.69272,408.30576 37.92977,-0.23323"
       id="path6" /><rect
       style="fill:none;fill-opacity:1;stroke:#6d8fbe;stroke-width:2.2033;stroke-linecap:round;stroke-linejoin:round;stroke-dasharray:none;stroke-opacity:1"
       id="rect6"
       width="28.507591"
       height="22.060204"
       x="258.32742"
       y="423.08789"
       ry="1.9560187" /><path
       style="fill:none;fill-opacity:1;stroke:#6dbe8e;stroke-width:1.66131;stroke-linecap:round;stroke-linejoin:round;stroke-dasharray:none;stroke-opacity:1"
       d="m 324.92464,338.82762 -4.60214,2.14914 v 6.58329 l -3.96908,2.03003 3.86903,1.97886 v 6.60093 l 4.45207,2.27706"
       id="path7" /><path
       style="fill:none;fill-opacity:1;stroke:#6dbdbe;stroke-width:1.66131;stroke-linecap:round;stroke-linejoin:round;stroke-dasharray:none;stroke-opacity:1"
       d="m 330.55627,338.82762 4.60214,2.14914 v 6.58329 l 3.96908,2.03003 -3.86903,1.97886 v 6.60093 l -4.45208,2.27706"
       id="path7-9" /><rect
       style="fill:#6da0be;fill-opacity:1;stroke:none;stroke-width:2.44718;stroke-linecap:round;stroke-linejoin:round;stroke-dasharray:none;stroke-opacity:1"
       id="rect7"
       width="20.46829"
       height="8.8352938"
       x="343.92838"
       y="353.27454"
       ry="0.76205635" /></g><path
     style="display:inline;fill:#714e56;fill-opacity:1;stroke-width:3.29953;stroke-linecap:round;stroke-linejoin:round;stroke-dasharray:none;stroke-opacity:0.445415"
     d="m 0,673.12624 53.407186,-12.8914 174.954574,-7.3665 77.34834,-34.99093 128.9139,-1.84163 193.37084,-12.89139 62.61532,-9.20813 152.85505,9.20813 70.90265,-19.33708 146.40934,-15.65383 158.3799,-3.68326 53.4073,-23.94115 143.6468,-7.36651 69.9819,-33.14928 55.2488,9.20813 82.8732,-11.04976 106.8144,-27.62441 130.7555,16.57465 L 1920,476.07212 V 700 H 0 Z"
     id="path1" /><ellipse
     style="fill:url(#radialGradient162);stroke:none;stroke-width:1.02429;stroke-linecap:round;stroke-linejoin:round;stroke-dasharray:none;stroke-opacity:1"
     id="path160"
     cx="1689.4316"
     cy="185.35803"
     rx="232.16154"
     ry="229.40282" /></svg>
