<svg id="Capa_1" data-name="Capa 1" xmlns="http://www.w3.org/2000/svg" width="842.63" height="405.32" viewBox="0 0 842.63 405.32">
  <defs>
    <style>
      .cls-1 {
        fill: #705020;
      }

      .cls-1, .cls-10, .cls-11, .cls-12, .cls-13, .cls-14, .cls-15, .cls-16, .cls-17, .cls-3, .cls-4, .cls-5, .cls-6, .cls-7, .cls-8, .cls-9 {
        stroke: #000;
      }

      .cls-1, .cls-10, .cls-11, .cls-12, .cls-13, .cls-3, .cls-4, .cls-5, .cls-6, .cls-7, .cls-8, .cls-9 {
        stroke-miterlimit: 10;
      }

      .cls-1, .cls-14, .cls-15, .cls-16, .cls-17 {
        stroke-width: 3px;
      }

      .cls-2 {
        fill: #cac3ba;
      }

      .cls-15, .cls-3 {
        fill: none;
      }

      .cls-10, .cls-11, .cls-12, .cls-13, .cls-3, .cls-4, .cls-5, .cls-6, .cls-7, .cls-8, .cls-9 {
        stroke-width: 5px;
      }

      .cls-4 {
        fill: #666;
      }

      .cls-5 {
        fill: #868478;
      }

      .cls-6 {
        fill: #867878;
      }

      .cls-7 {
        fill: gray;
      }

      .cls-8 {
        fill: #bfbfbf;
      }

      .cls-9 {
        fill: #998675;
      }

      .cls-10 {
        fill: #b3b3b3;
      }

      .cls-11 {
        fill: #958675;
      }

      .cls-12 {
        fill: #9daf97;
      }

      .cls-13 {
        fill: #c7b299;
      }

      .cls-14 {
        fill: #ffa000;
      }

      .cls-15 {
        stroke-linecap: round;
      }

      .cls-16 {
        fill: #00b0ff;
      }

      .cls-17 {
        fill: #fff;
      }
    </style>
  </defs>
  <rect class="cls-1" x="667.03" y="185" width="5.65" height="62.3" transform="translate(886 -453.71) rotate(90)"/>
  <rect class="cls-1" x="666.53" y="212.58" width="5.65" height="62.3" transform="translate(913.08 -425.63) rotate(90)"/>
  <rect class="cls-1" x="667.03" y="237.03" width="5.65" height="62.3" transform="translate(938.03 -401.68) rotate(90)"/>
  <rect class="cls-1" x="667.28" y="261.48" width="5.65" height="62.3" transform="translate(962.73 -377.48) rotate(90)"/>
  <rect class="cls-1" x="666.78" y="289.06" width="5.65" height="62.3" transform="translate(989.81 -349.4) rotate(90)"/>
  <rect class="cls-1" x="667.28" y="313.51" width="5.65" height="62.3" transform="translate(1014.76 -325.45) rotate(90)"/>
  <rect class="cls-1" x="655.95" y="350.24" width="5.65" height="39.63" transform="translate(1236.95 -116.39) rotate(110.6)"/>
  <rect class="cls-1" x="332.92" y="199.65" width="5.65" height="62.3" transform="translate(566.53 -104.94) rotate(90)"/>
  <rect class="cls-1" x="332.41" y="227.22" width="5.65" height="62.3" transform="translate(593.61 -76.86) rotate(90)"/>
  <rect class="cls-1" x="332.92" y="251.67" width="5.65" height="62.3" transform="translate(618.56 -52.92) rotate(90)"/>
  <rect class="cls-1" x="355.59" y="200.53" width="11.29" height="108.97"/>
  <rect class="cls-1" x="227.28" y="57.46" width="11.29" height="297.44" transform="translate(439.11 -26.75) rotate(90)"/>
  <rect class="cls-1" x="393.39" y="209.59" width="11.64" height="191.82" transform="translate(704.7 -93.71) rotate(90)"/>
  <rect class="cls-1" x="560.95" y="163.4" width="11.29" height="164.61" transform="translate(812.3 -320.89) rotate(90)"/>
  <rect class="cls-1" x="689.71" y="135.94" width="11.29" height="267.88"/>
  <rect class="cls-1" x="638.71" y="135.94" width="11.29" height="267.88"/>
  <rect class="cls-1" x="484.29" y="156.06" width="11.29" height="168"/>
  <rect class="cls-1" x="84.21" y="56.49" width="11.29" height="168"/>
  <rect class="cls-1" x="303.3" y="56.49" width="11.29" height="267.57"/>
  <path class="cls-2" d="M0,129.94H267.87s12.71.86,13.13-13.33,0-33.26,0-33.26-1.67-12,14.9-12l35.57.1S346.3,70.65,347,86.18s0,30.43,0,30.43S348.61,130,360.36,130H378s14.91-2.42,14.91,14.58v29.79s-.8,15,16.44,16.44,282.18,0,282.18,0,15.74,0,15.28-17.64,0-30.47,0-30.47-1.67-13.06,13.06-13.06c15,0,14.68,0,122.75.45V0H0Z"/>
  <path class="cls-3" d="M0,129.94H267.87s12.71.86,13.13-13.33,0-33.26,0-33.26-1.67-12,14.9-12l35.57.1S346.3,70.65,347,86.18s0,30.43,0,30.43S348.61,130,360.36,130H378s14.91-2.42,14.91,14.58v29.79s-.8,15,16.44,16.44,282.18,0,282.18,0,15.74,0,15.28-17.64,0-30.47,0-30.47-1.67-13.06,13.06-13.06c15,0,14.68,0,122.75.45"/>
  <path class="cls-4" d="M9.5,19S9.94,9.53,20,9.53l65,0C96,9.5,95.5,20,95.5,20s0,16.41,0,25.71c0,10.29-8.86,9.79-8.86,9.79H20.24C9,55.5,9.5,45.53,9.5,45.53Z"/>
  <path class="cls-5" d="M110.41,19.2s.44-9.47,10.47-9.47l65,0c11,0,10.5,10.5,10.5,10.5s0,16.42,0,25.71c0,10.29-8.86,9.79-8.86,9.79H121.15c-11.24,0-10.74-10-10.74-10Z"/>
  <path class="cls-6" d="M57,80.1s.44-9.47,10.47-9.47l65,0c11,0,10.5,10.5,10.5,10.5v25.71c0,10.29-8.86,9.79-8.86,9.79H67.69c-11.23,0-10.73-10-10.73-10Z"/>
  <path class="cls-7" d="M157.87,80.31s.44-9.48,10.47-9.48l89,0c11,0,10.5,10.5,10.5,10.5V107c0,10.3-8.85,9.8-8.85,9.8H168.6c-11.23,0-10.73-10-10.73-10Z"/>
  <path class="cls-8" d="M212,19s.45-9.47,10.47-9.47l48,0c11,0,10.5,10.5,10.5,10.5s0,16.41,0,25.71c0,10.29-8.86,9.79-8.86,9.79H222.73c-11.24,0-10.74-10-10.74-10Z"/>
  <path class="cls-5" d="M295.91,19.17s.44-9.47,10.47-9.47l82,0c11,0,10.5,10.5,10.5,10.5v25.7c0,10.3-8.86,9.8-8.86,9.8H306.64c-11.23,0-10.73-10-10.73-10Z"/>
  <path class="cls-7" d="M360.36,80.27s.44-9.47,10.47-9.47l47,0c11,0,10.5,10.5,10.5,10.5s0,16.41,0,25.7c0,10.3-8.86,9.8-8.86,9.8H371.1c-11.24,0-10.74-10-10.74-10Z"/>
  <path class="cls-9" d="M0,71.13H30.68c9.82,0,10.5,8.7,10.5,8.7v27.5c0,10.18-8.85,9.8-8.85,9.8H0"/>
  <path class="cls-10" d="M414.13,19.71s.44-9.47,10.47-9.47l75,0c11,0,10.5,10.5,10.5,10.5V46.42c0,10.29-8.86,9.79-8.86,9.79H424.86c-11.23,0-10.73-10-10.73-10Z"/>
  <path class="cls-11" d="M443.58,80.81s.44-9.47,10.47-9.47l83,0c11,0,10.5,10.5,10.5,10.5s0,16.41,0,25.71c0,10.29-8.86,9.79-8.86,9.79H454.32c-11.24,0-10.74-10-10.74-10Z"/>
  <path class="cls-7" d="M405.35,142.26s.45-9.47,10.48-9.47l54,0c11,0,10.5,10.5,10.5,10.5s0,16.41,0,25.71c0,10.29-8.86,9.79-8.86,9.79H416.09c-11.24,0-10.74-10-10.74-10Z"/>
  <path class="cls-5" d="M526.24,20s.44-9.47,10.47-9.47l65,0c11,0,10.5,10.5,10.5,10.5v25.7c0,10.3-8.85,9.8-8.85,9.8H537c-11.24,0-10.74-10-10.74-10Z"/>
  <path class="cls-12" d="M496.47,142.54s.44-9.47,10.47-9.47l76,0c11,0,10.5,10.5,10.5,10.5v25.7c0,10.3-8.85,9.8-8.85,9.8H507.2c-11.23,0-10.73-10-10.73-10Z"/>
  <path class="cls-8" d="M562.9,80.71s.44-9.47,10.47-9.47l65,0c11,0,10.5,10.5,10.5,10.5v25.71c0,10.29-8.85,9.79-8.85,9.79H573.63c-11.23,0-10.73-10-10.73-10Z"/>
  <path class="cls-5" d="M664.69,80.27s.44-9.47,10.47-9.47l65,0c11,0,10.5,10.5,10.5,10.5V107c0,10.3-8.86,9.8-8.86,9.8H675.42c-11.23,0-10.73-10-10.73-10Z"/>
  <path class="cls-6" d="M609.35,141.81s.45-9.47,10.48-9.47l65,0c11,0,10.5,10.5,10.5,10.5s0,16.41,0,25.71c0,10.29-8.86,9.79-8.86,9.79H620.09c-11.24,0-10.74-10-10.74-10Z"/>
  <path class="cls-13" d="M627.35,19.44S627.8,10,637.83,10l65,0c11,0,10.5,10.5,10.5,10.5s0,16.41,0,25.7c0,10.3-8.86,9.8-8.86,9.8H638.09c-11.24,0-10.74-10-10.74-10Z"/>
  <path class="cls-9" d="M842.62,117.27H777.21c-11.24,0-10.74-10-10.74-10V80.77s.44-9.47,10.47-9.47l65.53,0"/>
  <path class="cls-10" d="M728.83,20s.44-9.47,10.47-9.47l86,0c11,0,10.5,10.5,10.5,10.5v25.7c0,10.3-8.86,9.8-8.86,9.8H739.56c-11.23,0-10.73-10-10.73-10Z"/>
  <path class="cls-14" d="M433.93,272.73a3.46,3.46,0,0,1,3.65-3.66h2.2l3.65-8,3.65,8h3.66l3.65-8,3.66,8h2.19a3.46,3.46,0,0,1,3.65,3.66v22.65a3.45,3.45,0,0,1-3.65,3.66H437.58a3.45,3.45,0,0,1-3.65-3.66Z"/>
  <path class="cls-15" d="M441.6,287.34c0,5.85,7.31,5.12,7.31,0,0,5.85,7.31,5.12,7.31,0"/>
  <line class="cls-15" x1="439.3" y1="274.5" x2="439.3" y2="281.12"/>
  <line class="cls-15" x1="444.41" y1="274.5" x2="444.41" y2="281.12"/>
  <path class="cls-16" d="M567.24,213.36a3.31,3.31,0,0,1,3.5-3.5h21.7a3.31,3.31,0,0,1,3.5,3.5v21.7a3.31,3.31,0,0,1-3.5,3.5h-21.7a3.31,3.31,0,0,1-3.5-3.5Z"/>
  <line class="cls-15" x1="585.97" y1="216.15" x2="585.97" y2="222.76"/>
  <line class="cls-15" x1="591.08" y1="216.15" x2="591.08" y2="222.76"/>
  <path class="cls-17" d="M123.8,174.82a3.41,3.41,0,0,1,3.61-3.61h2.17l3.61-8,3.61,8h3.61l3.61-8,3.62,8h2.16a3.41,3.41,0,0,1,3.61,3.61v22.39a3.41,3.41,0,0,1-3.61,3.61H127.41a3.41,3.41,0,0,1-3.61-3.61Z"/>
  <path class="cls-15" d="M131.39,189.26c0,5.78,7.22,5.06,7.22,0,0,5.78,7.22,5.06,7.22,0"/>
  <line class="cls-15" x1="143.27" y1="174.68" x2="143.27" y2="181.29"/>
  <line class="cls-15" x1="148.39" y1="174.68" x2="148.39" y2="181.29"/>
</svg>
