<?xml version="1.0" encoding="UTF-8" standalone="no"?>
<svg
   id="Capa_1"
   data-name="Capa 1"
   width="800"
   height="400"
   viewBox="0 0 800 399.99999"
   version="1.1"
   xmlns="http://www.w3.org/2000/svg"
   xmlns:svg="http://www.w3.org/2000/svg">
  <defs
     id="defs1">
    <style
       id="style1">
      .cls-1 {
        fill: #705020;
      }

      .cls-1, .cls-10, .cls-11, .cls-12, .cls-13, .cls-14, .cls-15, .cls-16, .cls-17, .cls-3, .cls-4, .cls-5, .cls-6, .cls-7, .cls-8, .cls-9 {
        stroke: #000;
      }

      .cls-1, .cls-10, .cls-11, .cls-12, .cls-13, .cls-3, .cls-4, .cls-5, .cls-6, .cls-7, .cls-8, .cls-9 {
        stroke-miterlimit: 10;
      }

      .cls-1, .cls-14, .cls-15, .cls-16, .cls-17 {
        stroke-width: 3px;
      }

      .cls-2 {
        fill: #cac3ba;
      }

      .cls-15, .cls-3 {
        fill: none;
      }

      .cls-10, .cls-11, .cls-12, .cls-13, .cls-3, .cls-4, .cls-5, .cls-6, .cls-7, .cls-8, .cls-9 {
        stroke-width: 5px;
      }

      .cls-4 {
        fill: #666;
      }

      .cls-5 {
        fill: #868478;
      }

      .cls-6 {
        fill: #867878;
      }

      .cls-7 {
        fill: gray;
      }

      .cls-8 {
        fill: #bfbfbf;
      }

      .cls-9 {
        fill: #998675;
      }

      .cls-10 {
        fill: #b3b3b3;
      }

      .cls-11 {
        fill: #958675;
      }

      .cls-12 {
        fill: #9daf97;
      }

      .cls-13 {
        fill: #c7b299;
      }

      .cls-14 {
        fill: #ffa000;
      }

      .cls-15 {
        stroke-linecap: round;
      }

      .cls-16 {
        fill: #00b0ff;
      }

      .cls-17 {
        fill: #fff;
      }
    </style>
  </defs>
  <path
     class="cls-2"
     d="m -6.25,123.3646 h 260.56488 c 0,0 12.06683,0.81648 12.46558,-12.65546 0.39875,-13.471934 0,-31.576928 0,-31.576928 0,0 -1.58549,-11.39276 14.14601,-11.39276 l 33.77004,0.09494 c 0,0 14.07955,-0.759517 14.74413,13.984613 0.66458,14.74413 0,28.890135 0,28.890135 0,0 1.52853,12.71243 12.68394,12.71243 h 16.74736 c 0,0 14.1555,-2.29754 14.1555,13.8422 v 28.28253 c 0,0 -0.75952,14.24095 15.60808,15.60808 16.3676,1.36713 267.90075,0 267.90075,0 0,0 14.94351,0 14.50678,-16.74736 -0.43672,-16.74736 0,-28.92812 0,-28.92812 0,0 -1.58549,-12.39912 12.39912,-12.39912 14.24095,0 20.44664,-0.23735 123.04794,0.18988 V 0 H -5.25 Z"
     id="path19"
     style="stroke-width:0.949397" />
  <path
     class="cls-3"
     d="m 0,123.3646 h 254.31488 c 0,0 12.06683,0.81648 12.46558,-12.65546 0.39875,-13.471934 0,-31.576928 0,-31.576928 0,0 -1.58549,-11.39276 14.14601,-11.39276 l 33.77004,0.09494 c 0,0 14.07955,-0.759517 14.74413,13.984613 0.66458,14.74413 0,28.890135 0,28.890135 0,0 1.52853,12.71243 12.68394,12.71243 h 16.74736 c 0,0 14.1555,-2.29754 14.1555,13.8422 v 28.28253 c 0,0 -0.75952,14.24095 15.60808,15.60808 16.3676,1.36713 267.90075,0 267.90075,0 0,0 14.94351,0 14.50678,-16.74736 -0.43672,-16.74736 0,-28.92812 0,-28.92812 0,0 -1.91575,-12.40049 12.06887,-12.40049 14.24095,0 20.77689,-0.2364 123.37819,0.19125"
     id="path20" />
  <path
     class="cls-4"
     d="m 9.0192683,18.038537 c 0,0 0.4177345,-8.9907868 9.9686647,-8.9907868 h 61.710783 c 10.443363,-0.028482 9.968665,9.9401828 9.968665,9.9401828 0,0 0,15.579599 0,24.408988 0,9.769292 -8.411654,9.294594 -8.411654,9.294594 H 19.215788 c -10.6712181,0 -10.1965197,-9.465485 -10.1965197,-9.465485 z"
     id="path21" />
  <path
     class="cls-5"
     d="m 104.82289,18.228416 c 0,0 0.41773,-8.9907865 9.94018,-8.9907865 h 61.71078 c 10.44336,0 9.96867,9.9686645 9.96867,9.9686645 0,0 0,15.589094 0,24.408989 0,9.769291 -8.41166,9.294593 -8.41166,9.294593 h -63.01145 c -10.67122,0 -10.19652,-9.493967 -10.19652,-9.493967 z"
     id="path22" />
  <path
     class="cls-6"
     d="m 54.11561,76.046672 c 0,0 0.417734,-8.990786 9.940183,-8.990786 h 61.710787 c 10.44336,0 9.96866,9.968665 9.96866,9.968665 v 24.408989 c 0,9.76929 -8.41165,9.29459 -8.41165,9.29459 H 64.26466 c -10.661725,0 -10.187026,-9.49396 -10.187026,-9.49396 z"
     id="path23" />
  <path
     class="cls-7"
     d="m 149.88125,76.246046 c 0,0 0.41774,-9.000281 9.94018,-9.000281 h 84.49631 c 10.44336,0 9.96866,9.968665 9.96866,9.968665 v 24.37101 c 0,9.77879 -8.40216,9.30409 -8.40216,9.30409 h -85.81596 c -10.66173,0 -10.18703,-9.49397 -10.18703,-9.49397 z"
     id="path24" />
  <path
     class="cls-8"
     d="m 201.27209,18.038537 c 0,0 0.42723,-8.9907868 9.94018,-8.9907868 h 45.57104 c 10.44337,0 9.96867,9.9686648 9.96867,9.9686648 0,0 0,15.579599 0,24.408988 0,9.769292 -8.41166,9.294593 -8.41166,9.294593 h -46.8812 c -10.67122,0 -10.19652,-9.493966 -10.19652,-9.493966 z"
     id="path25" />
  <path
     class="cls-5"
     d="m 280.93597,18.199934 c 0,0 0.41773,-8.9907864 9.94018,-8.9907864 h 77.85052 c 10.44337,0 9.96867,9.9686654 9.96867,9.9686654 v 24.399494 c 0,9.778785 -8.41165,9.304087 -8.41165,9.304087 h -79.1607 c -10.66172,0 -10.18702,-9.493967 -10.18702,-9.493967 z"
     id="path26" />
  <path
     class="cls-7"
     d="m 342.12458,76.20807 c 0,0 0.41773,-8.990787 9.94018,-8.990787 h 44.62165 c 10.44336,0 9.96866,9.968665 9.96866,9.968665 0,0 0,15.5796 0,24.399492 0,9.77879 -8.41165,9.30409 -8.41165,9.30409 H 352.3211 c -10.67122,0 -10.19652,-9.49397 -10.19652,-9.49397 z"
     id="path27" />
  <path
     class="cls-9"
     d="M -5.7974065,67.530584 H 29.12749 c 9.323075,0 9.968664,8.259751 9.968664,8.259751 v 26.108405 c 0,9.66486 -8.40216,9.30409 -8.40216,9.30409 h -36.84541"
     id="path28" />
  <path
     class="cls-10"
     d="m 393.17364,18.712608 c 0,0 0.41773,-8.9907862 9.94018,-8.9907862 h 71.20475 c 10.44336,0 9.96867,9.9686652 9.96867,9.9686652 v 24.380506 c 0,9.769292 -8.41166,9.294593 -8.41166,9.294593 h -72.51492 c -10.66172,0 -10.18702,-9.493966 -10.18702,-9.493966 z"
     id="path29" />
  <path
     class="cls-11"
     d="m 421.13337,76.720744 c 0,0 0.41773,-8.990786 9.94018,-8.990786 h 78.79993 c 10.44336,0 9.96866,9.968665 9.96866,9.968665 0,0 0,15.579599 0,24.408987 0,9.76929 -8.41165,9.29459 -8.41165,9.29459 h -80.1006 c -10.67122,0 -10.19652,-9.49396 -10.19652,-9.49396 z"
     id="path30" />
  <path
     class="cls-7"
     d="m 384.83794,135.06117 c 0,0 0.42722,-8.99079 9.94967,-8.99079 h 51.26742 c 10.44337,0 9.96867,9.96867 9.96867,9.96867 0,0 0,15.5796 0,24.40899 0,9.76929 -8.41166,9.29459 -8.41166,9.29459 h -52.57758 c -10.67122,0 -10.19652,-9.49397 -10.19652,-9.49397 z"
     id="path31" />
  <path
     class="cls-5"
     d="m 499.6105,18.987933 c 0,0 0.41773,-8.9907862 9.94018,-8.9907862 h 61.71078 c 10.44337,0 9.96867,9.9686652 9.96867,9.9686652 v 24.399494 c 0,9.778785 -8.40216,9.304087 -8.40216,9.304087 h -63.00196 c -10.67122,0 -10.19652,-9.493966 -10.19652,-9.493966 z"
     id="path32" />
  <path
     class="cls-12"
     d="m 471.34696,135.327 c 0,0 0.41773,-8.99079 9.94018,-8.99079 h 72.15415 c 10.44336,0 9.96866,9.96867 9.96866,9.96867 v 24.39949 c 0,9.77879 -8.40216,9.30409 -8.40216,9.30409 h -73.4738 c -10.66173,0 -10.18703,-9.49397 -10.18703,-9.49397 z"
     id="path33" />
  <path
     class="cls-8"
     d="m 534.41538,76.625804 c 0,0 0.41773,-8.990786 9.94018,-8.990786 h 61.71079 c 10.44336,0 9.96866,9.968665 9.96866,9.968665 v 24.408987 c 0,9.76929 -8.40216,9.29459 -8.40216,9.29459 h -63.03044 c -10.66173,0 -10.18703,-9.49396 -10.18703,-9.49396 z"
     id="path34" />
  <path
     class="cls-5"
     d="m 631.05447,76.20807 c 0,0 0.41773,-8.990787 9.94018,-8.990787 h 61.71078 c 10.44336,0 9.96867,9.968665 9.96867,9.968665 v 24.399492 c 0,9.77879 -8.41166,9.30409 -8.41166,9.30409 h -63.02095 c -10.66172,0 -10.18702,-9.49397 -10.18702,-9.49397 z"
     id="path35" />
  <path
     class="cls-6"
     d="m 578.51485,134.63394 c 0,0 0.42723,-8.99079 9.94968,-8.99079 h 61.71078 c 10.44337,0 9.96867,9.96867 9.96867,9.96867 0,0 0,15.5796 0,24.40899 0,9.76929 -8.41166,9.29459 -8.41166,9.29459 h -63.02095 c -10.67121,0 -10.19652,-9.49397 -10.19652,-9.49397 z"
     id="path36" />
  <path
     class="cls-13"
     d="m 595.60399,18.456271 c 0,0 0.42723,-8.9623044 9.94968,-8.9623044 h 61.71078 c 10.44337,0 9.96867,9.9686654 9.96867,9.9686654 0,0 0,15.579599 0,24.399494 0,9.778785 -8.41166,9.304087 -8.41166,9.304087 h -63.02095 c -10.67121,0 -10.19652,-9.493967 -10.19652,-9.493967 z"
     id="path37" />
  <path
     class="cls-9"
     d="m 806.5,111.20283 h -68.61942 c -10.67122,0 -10.19652,-9.36105 -10.19652,-9.36105 V 76.682768 c 0,0 0.41773,-9.152184 9.94018,-9.152184 H 806.5"
     id="path38" />
  <path
     class="cls-10"
     d="m 691.94877,18.987933 c 0,0 0.41773,-8.9907862 9.94018,-8.9907862 h 81.64811 c 10.44337,0 9.96867,9.9686652 9.96867,9.9686652 v 24.399494 c 0,9.778785 -8.41166,9.304087 -8.41166,9.304087 h -82.95828 c -10.66172,0 -10.18702,-9.493966 -10.18702,-9.493966 z"
     id="path39" />
</svg>
