<svg id="Capa_1" data-name="Capa 1" xmlns="http://www.w3.org/2000/svg" width="842.63" height="193.89" viewBox="0 0 842.63 193.89">
  <defs>
    <style>
      .cls-1 {
        fill: #cac3ba;
      }

      .cls-2 {
        fill: none;
      }

      .cls-10, .cls-11, .cls-12, .cls-2, .cls-3, .cls-4, .cls-5, .cls-6, .cls-7, .cls-8, .cls-9 {
        stroke: #000;
        stroke-miterlimit: 10;
        stroke-width: 5px;
      }

      .cls-3 {
        fill: #666;
      }

      .cls-4 {
        fill: #868478;
      }

      .cls-5 {
        fill: #867878;
      }

      .cls-6 {
        fill: gray;
      }

      .cls-7 {
        fill: #bfbfbf;
      }

      .cls-8 {
        fill: #998675;
      }

      .cls-9 {
        fill: #b3b3b3;
      }

      .cls-10 {
        fill: #958675;
      }

      .cls-11 {
        fill: #9daf97;
      }

      .cls-12 {
        fill: #c7b299;
      }
    </style>
  </defs>
  <path class="cls-1" d="M0,129.94H267.87s12.71.86,13.13-13.33,0-33.26,0-33.26-1.67-12,14.9-12l35.57.1S346.3,70.65,347,86.18s0,30.43,0,30.43S348.61,130,360.36,130H378s14.91-2.42,14.91,14.58v29.79s-.8,15,16.44,16.44,282.18,0,282.18,0,15.74,0,15.28-17.64,0-30.47,0-30.47-1.67-13.06,13.06-13.06c15,0,14.68,0,122.75.45V0H0Z"/>
  <path class="cls-2" d="M0,129.94H267.87s12.71.86,13.13-13.33,0-33.26,0-33.26-1.67-12,14.9-12l35.57.1S346.3,70.65,347,86.18s0,30.43,0,30.43S348.61,130,360.36,130H378s14.91-2.42,14.91,14.58v29.79s-.8,15,16.44,16.44,282.18,0,282.18,0,15.74,0,15.28-17.64,0-30.47,0-30.47-1.67-13.06,13.06-13.06c15,0,14.68,0,122.75.45"/>
  <path class="cls-3" d="M9.5,19S9.94,9.53,20,9.53l65,0C96,9.5,95.5,20,95.5,20s0,16.41,0,25.71c0,10.29-8.86,9.79-8.86,9.79H20.24C9,55.5,9.5,45.53,9.5,45.53Z"/>
  <path class="cls-4" d="M110.41,19.2s.44-9.47,10.47-9.47l65,0c11,0,10.5,10.5,10.5,10.5s0,16.42,0,25.71c0,10.29-8.86,9.79-8.86,9.79H121.15c-11.24,0-10.74-10-10.74-10Z"/>
  <path class="cls-5" d="M57,80.1s.44-9.47,10.47-9.47l65,0c11,0,10.5,10.5,10.5,10.5v25.71c0,10.29-8.86,9.79-8.86,9.79H67.69c-11.23,0-10.73-10-10.73-10Z"/>
  <path class="cls-6" d="M157.87,80.31s.44-9.48,10.47-9.48l89,0c11,0,10.5,10.5,10.5,10.5V107c0,10.3-8.85,9.8-8.85,9.8H168.6c-11.23,0-10.73-10-10.73-10Z"/>
  <path class="cls-7" d="M212,19s.45-9.47,10.47-9.47l48,0c11,0,10.5,10.5,10.5,10.5s0,16.41,0,25.71c0,10.29-8.86,9.79-8.86,9.79H222.73c-11.24,0-10.74-10-10.74-10Z"/>
  <path class="cls-4" d="M295.91,19.17s.44-9.47,10.47-9.47l82,0c11,0,10.5,10.5,10.5,10.5v25.7c0,10.3-8.86,9.8-8.86,9.8H306.64c-11.23,0-10.73-10-10.73-10Z"/>
  <path class="cls-6" d="M360.36,80.27s.44-9.47,10.47-9.47l47,0c11,0,10.5,10.5,10.5,10.5s0,16.41,0,25.7c0,10.3-8.86,9.8-8.86,9.8H371.1c-11.24,0-10.74-10-10.74-10Z"/>
  <path class="cls-8" d="M0,71.13H30.68c9.82,0,10.5,8.7,10.5,8.7v27.5c0,10.18-8.85,9.8-8.85,9.8H0"/>
  <path class="cls-9" d="M414.13,19.71s.44-9.47,10.47-9.47l75,0c11,0,10.5,10.5,10.5,10.5V46.42c0,10.29-8.86,9.79-8.86,9.79H424.86c-11.23,0-10.73-10-10.73-10Z"/>
  <path class="cls-10" d="M443.58,80.81s.44-9.47,10.47-9.47l83,0c11,0,10.5,10.5,10.5,10.5s0,16.41,0,25.71c0,10.29-8.86,9.79-8.86,9.79H454.32c-11.24,0-10.74-10-10.74-10Z"/>
  <path class="cls-6" d="M405.35,142.26s.45-9.47,10.48-9.47l54,0c11,0,10.5,10.5,10.5,10.5s0,16.41,0,25.71c0,10.29-8.86,9.79-8.86,9.79H416.09c-11.24,0-10.74-10-10.74-10Z"/>
  <path class="cls-4" d="M526.24,20s.44-9.47,10.47-9.47l65,0c11,0,10.5,10.5,10.5,10.5v25.7c0,10.3-8.85,9.8-8.85,9.8H537c-11.24,0-10.74-10-10.74-10Z"/>
  <path class="cls-11" d="M496.47,142.54s.44-9.47,10.47-9.47l76,0c11,0,10.5,10.5,10.5,10.5v25.7c0,10.3-8.85,9.8-8.85,9.8H507.2c-11.23,0-10.73-10-10.73-10Z"/>
  <path class="cls-7" d="M562.9,80.71s.44-9.47,10.47-9.47l65,0c11,0,10.5,10.5,10.5,10.5v25.71c0,10.29-8.85,9.79-8.85,9.79H573.63c-11.23,0-10.73-10-10.73-10Z"/>
  <path class="cls-4" d="M664.69,80.27s.44-9.47,10.47-9.47l65,0c11,0,10.5,10.5,10.5,10.5V107c0,10.3-8.86,9.8-8.86,9.8H675.42c-11.23,0-10.73-10-10.73-10Z"/>
  <path class="cls-5" d="M609.35,141.81s.45-9.47,10.48-9.47l65,0c11,0,10.5,10.5,10.5,10.5s0,16.41,0,25.71c0,10.29-8.86,9.79-8.86,9.79H620.09c-11.24,0-10.74-10-10.74-10Z"/>
  <path class="cls-12" d="M627.35,19.44S627.8,10,637.83,10l65,0c11,0,10.5,10.5,10.5,10.5s0,16.41,0,25.7c0,10.3-8.86,9.8-8.86,9.8H638.09c-11.24,0-10.74-10-10.74-10Z"/>
  <path class="cls-8" d="M842.62,117.27H777.21c-11.24,0-10.74-10-10.74-10V80.77s.44-9.47,10.47-9.47l65.53,0"/>
  <path class="cls-9" d="M728.83,20s.44-9.47,10.47-9.47l86,0c11,0,10.5,10.5,10.5,10.5v25.7c0,10.3-8.86,9.8-8.86,9.8H739.56c-11.23,0-10.73-10-10.73-10Z"/>
</svg>
